<svg width="1340" height="440" viewBox="0 0 1340 440" fill="none" xmlns="http://www.w3.org/2000/svg">
    <rect width="1340" height="440" rx="100" fill="white" />
    <path
        d="M447.44 213.84C447.44 266.16 481.04 302.64 527.6 302.64C574.16 302.64 607.76 266.16 607.76 213.84C607.76 161.52 574.16 125.04 527.6 125.04C481.04 125.04 447.44 161.52 447.44 213.84ZM577.04 213.84C577.04 251.28 556.64 275.52 527.6 275.52C498.56 275.52 478.16 251.28 478.16 213.84C478.16 176.4 498.56 152.16 527.6 152.16C556.64 152.16 577.04 176.4 577.04 213.84Z"
        fill="black" />
    <path
        d="M694.27 302.64C729.55 302.64 749.71 272.88 749.71 237.12C749.71 201.36 729.55 171.6 694.27 171.6C677.95 171.6 665.95 178.08 658.03 187.44V174H629.23V343.2H658.03V286.8C665.95 296.16 677.95 302.64 694.27 302.64ZM657.31 233.52C657.31 209.76 670.75 196.8 688.51 196.8C709.39 196.8 720.67 213.12 720.67 237.12C720.67 261.12 709.39 277.44 688.51 277.44C670.75 277.44 657.31 264.24 657.31 240.96V233.52Z"
        fill="black" />
    <path
        d="M827.65 302.64C852.85 302.64 872.77 289.44 881.65 267.36L856.93 258C853.09 270.96 841.81 278.16 827.65 278.16C809.17 278.16 796.21 264.96 794.05 243.36H882.37V233.76C882.37 199.2 862.93 171.6 826.45 171.6C789.97 171.6 766.45 200.16 766.45 237.12C766.45 276 791.65 302.64 827.65 302.64ZM826.21 195.84C844.45 195.84 853.09 207.84 853.33 221.76H795.49C799.81 204.72 811.33 195.84 826.21 195.84Z"
        fill="black" />
    <path
        d="M903.98 300H932.78V226.08C932.78 208.08 945.98 198.48 958.94 198.48C974.78 198.48 981.02 209.76 981.02 225.36V300H1009.82V216.96C1009.82 189.84 993.98 171.6 967.58 171.6C951.26 171.6 939.98 179.04 932.78 187.44V174H903.98V300Z"
        fill="black" />
    <path
        d="M1094.17 127.68L1028.89 300H1059.37L1074.01 260.64H1148.41L1163.29 300H1194.25L1128.97 127.68H1094.17ZM1110.97 161.76L1138.33 233.76H1084.09L1110.97 161.76Z"
        fill="black" />
    <path d="M1243.69 128.18H1212.97V300.5H1243.69V128.18Z" fill="black" />
    <path
        d="M377.06 190.97C384.32 169.18 381.82 145.31 370.21 125.49C352.75 95.0895 317.65 79.4495 283.37 86.8095C268.12 69.6295 246.21 59.8595 223.24 59.9995C188.2 59.9195 157.11 82.4795 146.33 115.82C123.82 120.43 104.39 134.52 93.02 154.49C75.43 184.81 79.44 223.03 102.94 249.03C95.68 270.82 98.18 294.69 109.79 314.51C127.25 344.91 162.35 360.55 196.63 353.19C211.87 370.37 233.79 380.14 256.76 379.99C291.82 380.08 322.92 357.5 333.7 324.13C356.21 319.52 375.64 305.43 387.01 285.46C404.58 255.14 400.56 216.95 377.07 190.95L377.06 190.97ZM256.78 359.08C242.75 359.1 229.16 354.19 218.39 345.2C218.88 344.94 219.73 344.47 220.28 344.13L284 307.33C287.26 305.48 289.26 302.01 289.24 298.26V208.43L316.17 223.98C316.46 224.12 316.65 224.4 316.69 224.72V299.11C316.65 332.19 289.86 359.01 256.78 359.08ZM127.94 304.05C120.91 291.91 118.38 277.68 120.79 263.87C121.26 264.15 122.09 264.66 122.68 265L186.4 301.8C189.63 303.69 193.63 303.69 196.87 301.8L274.66 256.88V287.98C274.68 288.3 274.53 288.61 274.28 288.81L209.87 326C181.18 342.52 144.54 332.7 127.95 304.05H127.94ZM111.17 164.96C118.17 152.8 129.22 143.5 142.38 138.67C142.38 139.22 142.35 140.19 142.35 140.87V214.48C142.33 218.22 144.33 221.69 147.58 223.54L225.37 268.45L198.44 284C198.17 284.18 197.83 284.21 197.53 284.08L133.11 246.86C104.48 230.28 94.66 193.65 111.16 164.97L111.17 164.96ZM332.43 216.45L254.64 171.53L281.57 155.99C281.84 155.81 282.18 155.78 282.48 155.91L346.9 193.1C375.58 209.67 385.41 246.36 368.84 275.04C361.83 287.18 350.79 296.48 337.64 301.32V225.51C337.67 221.77 335.68 218.31 332.44 216.45H332.43ZM359.23 176.11C358.76 175.82 357.93 175.32 357.34 174.98L293.62 138.18C290.39 136.29 286.39 136.29 283.15 138.18L205.36 183.1V152C205.34 151.68 205.49 151.37 205.74 151.17L270.15 114.01C298.84 97.4595 335.52 107.31 352.06 136.01C359.05 148.13 361.58 162.32 359.21 176.11H359.23ZM190.72 231.54L163.78 215.99C163.49 215.85 163.3 215.57 163.26 215.25V140.86C163.28 107.74 190.15 80.8995 223.27 80.9195C237.28 80.9195 250.84 85.8395 261.61 94.7995C261.12 95.0595 260.28 95.5295 259.72 95.8695L196 132.67C192.74 134.52 190.74 137.98 190.76 141.73L190.72 231.52V231.54ZM205.35 200L240 179.99L274.65 199.99V240L240 260L205.35 240V200Z"
        fill="black" />
</svg>
